<svg width="175" height="34" viewBox="0 0 175 34" fill="none" xmlns="http://www.w3.org/2000/svg">
<g clip-path="url(#clip0_17_13872)">
<path d="M6.14223 2.45038C1.0275 5.83864 -1.15595 12.1471 0.622847 17.863C1.4059 20.3795 2.83944 22.3617 4.59199 23.9136C4.59752 23.9182 4.60304 23.9235 4.60857 23.9282C5.47794 24.6952 6.48266 25.3071 7.53916 25.8122L9.62662 26.81L16.3399 30.0172L24.0096 33.6813C26.0957 34.6777 28.545 33.2212 28.545 30.9845V22.7594L28.5429 15.5606V13.3219C28.5429 12.1882 28.4193 11.052 28.0913 9.96343C28.0892 9.95614 28.0872 9.94951 28.0851 9.94222C27.7295 8.76816 27.2178 7.6173 26.5141 6.52677C22.2135 -0.141038 12.9487 -2.05825 6.14223 2.45038Z" fill="#234C86"/>
<path d="M14.4134 2.02441C20.3678 2.02441 25.3658 6.20887 26.2677 11.7199C26.8525 14.0189 26.0536 15.6517 23.0774 15.6517H8.14065C8.93959 18.2027 11.4372 20.0914 14.4134 20.0914C16.1666 20.0914 17.8149 19.3748 19.0378 18.2531C19.6206 17.6936 20.3657 17.4377 21.0576 17.4377C21.7495 17.4377 22.4394 17.6916 22.9718 18.2531C24.0359 19.2236 24.0359 20.9572 22.9718 22.0312C20.7925 24.1227 17.71 25.4499 14.4127 25.4499C7.60756 25.4499 2.18555 20.2432 2.18555 13.7113C2.18624 7.22979 7.60963 2.02441 14.4134 2.02441ZM14.4134 7.32989C11.4372 7.32989 8.93959 9.27097 8.14203 11.8723H20.5791C19.8368 9.26898 17.3371 7.32989 14.4134 7.32989Z" fill="white"/>
<path d="M30.3245 5.86304C29.6312 4.5312 30.1125 2.94546 31.5481 2.33291C31.9749 2.079 32.4016 1.97559 32.7731 1.97559C33.8386 1.97559 34.7998 2.53709 35.2791 3.45725L42.1519 17.0627L49.0779 3.45725C49.5046 2.53842 50.5162 1.97559 51.5285 1.97559C51.9553 1.97559 52.3793 2.07702 52.8067 2.33291C54.138 2.94679 54.7229 4.53253 54.0317 5.86304L44.6543 24.0189C44.1226 24.9921 43.1621 25.5025 42.1512 25.5025C41.1403 25.5025 40.1273 24.9921 39.5935 24.0189L30.3232 5.86304H30.3245Z" fill="black"/>
<path d="M68.2899 1.97332C74.2575 1.97332 79.2665 6.16705 80.1704 11.69C80.7567 13.9937 79.9564 15.6311 76.9726 15.6311H62.0027C62.8037 18.1881 65.3069 20.0808 68.2892 20.0808C70.0466 20.0808 71.6984 19.3621 72.9241 18.2378C73.5082 17.6769 74.2547 17.4211 74.9487 17.4211C75.6427 17.4211 76.3332 17.675 76.867 18.2378C77.9331 19.2103 77.9331 20.9479 76.867 22.0238C74.6828 24.12 71.5934 25.4499 68.2892 25.4499C61.4689 25.4499 56.0352 20.2312 56.0352 13.6854C56.0352 7.1893 61.4703 1.97266 68.2892 1.97266L68.2899 1.97332ZM68.2899 7.29073C65.3075 7.29073 62.8037 9.23645 62.0048 11.8431H74.4695C73.7258 9.23379 71.2198 7.29073 68.2899 7.29073Z" fill="black"/>
<path d="M94.5904 1.97363C100.611 1.97363 105.619 6.78058 105.618 12.5601V22.7892C105.618 24.2224 104.34 25.4508 102.848 25.4508C101.302 25.4508 100.024 24.2224 100.024 22.7892V12.5601C100.024 9.64645 97.5189 7.29104 94.589 7.29104C91.6059 7.29104 89.1021 9.64645 89.1021 12.5601V22.7892C89.1021 24.2224 87.8771 25.4508 86.2792 25.4508C84.787 25.4508 83.5088 24.2224 83.5088 22.7892V12.5601C83.5088 6.78058 88.5179 1.97363 94.5904 1.97363Z" fill="black"/>
<path d="M109.673 4.68372C109.673 3.20006 110.899 1.97363 112.443 1.97363C113.988 1.97363 115.214 3.20006 115.214 4.68372V14.8101C115.214 17.6753 117.717 20.0791 120.702 20.0791C123.687 20.0791 126.19 17.6759 126.19 14.8101V4.68372C126.19 3.20006 127.415 1.97363 128.961 1.97363C130.453 1.97363 131.731 3.20006 131.731 4.68372V14.8101C131.731 20.6419 126.775 25.4508 120.702 25.4508C114.629 25.4508 109.673 20.6406 109.673 14.8101V4.68372Z" fill="black"/>
<path d="M146.865 1.97363C148.358 1.97363 149.635 3.20006 149.635 4.63134C149.635 6.11632 148.356 7.29104 146.865 7.29104C143.776 7.29104 141.377 9.64645 141.377 12.5601V22.8402C141.377 24.3756 140.152 25.5516 138.606 25.5516C137.061 25.5516 135.836 24.3756 135.836 22.8402V12.5601C135.836 6.78058 140.79 1.97363 146.865 1.97363Z" fill="black"/>
<path d="M162.929 1.97332C168.896 1.97332 173.906 6.16705 174.81 11.69C175.396 13.9937 174.596 15.6311 171.613 15.6311H156.641C157.442 18.1881 159.946 20.0808 162.929 20.0808C164.686 20.0808 166.337 19.3621 167.563 18.2378C168.147 17.6769 168.893 17.4211 169.588 17.4211C170.283 17.4211 170.972 17.675 171.506 18.2378C172.572 19.2103 172.572 20.9479 171.506 22.0238C169.322 24.12 166.232 25.4499 162.929 25.4499C156.108 25.4499 150.674 20.2312 150.674 13.6854C150.674 7.1893 156.109 1.97266 162.929 1.97266L162.929 1.97332ZM162.929 7.29073C159.947 7.29073 157.442 9.23645 156.643 11.8431H169.109C168.365 9.23379 165.859 7.29073 162.929 7.29073Z" fill="black"/>
</g>
<defs>
<clipPath id="clip0_17_13872">
<rect width="175" height="34" fill="white"/>
</clipPath>
</defs>
</svg>
